<?xml version="1.0"?>
<svg xmlns="http://www.w3.org/2000/svg" xmlns:xlink="http://www.w3.org/1999/xlink" xmlns:svgjs="http://svgjs.com/svgjs" version="1.1" width="512" height="512" x="0" y="0" viewBox="0 0 497 497.695" style="enable-background:new 0 0 512 512" xml:space="preserve" class=""><g><path xmlns="http://www.w3.org/2000/svg" d="m212.847656 115.894531c27.398438-.046875 49.566406-22.308593 49.5-49.707031v-16.6875c0-27.339844-22.160156-49.5-49.5-49.5s-49.5 22.160156-49.5 49.5v16.6875c-.066406 27.398438 22.101563 49.660156 49.5 49.707031zm-33.5-66.394531c.035156-18.636719 15.121094-33.742188 33.753906-33.804688 18.59375 0 33.246094 15.214844 33.246094 33.804688v16.6875c0 18.5-15 33.5-33.5 33.5s-33.5-15-33.5-33.5zm0 0" fill="#ffffff" data-original="#000000" class=""/><path xmlns="http://www.w3.org/2000/svg" d="m421.949219 210.695312h-115.601563v-25c-.042968-36.984374-30.015625-66.957031-67-67h-48c-36.984375.042969-66.957031 30.015626-67 67v25h-115.601562c-4.414063 0-8.398438 3.214844-8.398438 7.632813v51.234375c.175782 4.519531 3.875 8.101562 8.398438 8.132812h20.601562v211.90625c0 4.417969 3.132813 8.09375 7.550782 8.09375h356.898437c4.417969 0 7.550781-3.675781 7.550781-8.09375v-211.90625h20.601563c4.523437-.03125 8.222656-3.613281 8.398437-8.132812v-51.234375c0-4.417969-3.980468-7.632813-8.398437-7.632813zm-281.601563-25c.03125-28.152343 22.847656-50.96875 51-51h48c28.152344.03125 50.96875 22.847657 51 51v25h-150zm245 296h-340v-204h340zm29-220h-398v-35h398zm0 0" fill="#ffffff" data-original="#000000" class=""/><path xmlns="http://www.w3.org/2000/svg" d="m149.167969 446.074219c17.460937 17.667969 41.269531 27.613281 66.109375 27.621093h.070312c51.636719.019532 93.515625-41.828124 93.535156-93.464843.015626-51.640625-41.828124-93.515625-93.46875-93.535157h-.066406c-37.789062-.0625-71.890625 22.660157-86.382812 57.558594-14.492188 34.902344-6.515625 75.097656 20.203125 101.820313zm11.40625-120.917969c14.523437-14.503906 34.246093-22.59375 54.773437-22.460938h.0625c42.800782.015626 77.484375 34.726563 77.46875 77.53125-.019531 42.800782-34.730468 77.484376-77.53125 77.46875h-.0625c-31.371094-.070312-59.617187-19.011718-71.585937-48.007812-11.972657-29-5.316407-62.351562 16.871093-84.53125zm0 0" fill="#ffffff" data-original="#000000" class=""/><path xmlns="http://www.w3.org/2000/svg" d="m172.226562 400.261719h22.609376l-.015626 22.582031c.003907 2.113281.847657 4.140625 2.347657 5.632812 1.5 1.492188 3.53125 2.324219 5.648437 2.3125l24.988282-.097656h.003906c2.101562.058594 4.136718-.726562 5.652344-2.179687 1.5-1.4375 2.347656-3.421875 2.347656-5.5l.019531-22.519531 22.609375.191406h.003906c4.449219-.082032 8.011719-3.71875 8-8.167969l.019532-25.167969c.003906-4.417968-3.574219-8.003906-7.992188-8.003906l-22.609375-.019531.015625-22.609375c.003906-4.421875-3.578125-8.003906-7.996094-8.007813l-24.988281-.011719h-.003906c-4.4375.050782-8.003907 3.664063-8 8.101563l-.019531 22.710937-22.609376.1875h-.003906c-2.101562-.046874-4.128906.75-5.632812 2.214844s-2.359375 3.472656-2.367188 5.570313l-.019531 24.785156c-.003906 2.121094.839844 4.15625 2.339844 5.65625 1.5 1.496094 3.53125 2.339844 5.652343 2.339844zm8.019532-24.777344 22.613281.210937h.003906c2.144531-.070312 4.171875-.980468 5.652344-2.53125 1.507813-1.570312 2.347656-3.664062 2.347656-5.84375l.015625-22.609374 8.988282.015624-.015626 22.621094c-.003906 4.421875 3.570313 8.015625 7.992188 8.027344l22.613281.066406-.007812 9.082032-22.613281.171874h-.003907c-2.097656-.070312-4.132812.707032-5.652343 2.148438-1.496094 1.425781-2.34375 3.402344-2.347657 5.46875l-.015625 22.609375-8.988281-.007813.015625-22.585937c0-2.121094-.84375-4.152344-2.34375-5.648437-1.496094-1.496094-3.53125-2.335938-5.652344-2.332032l-22.609375.03125zm0 0" fill="#ffffff" data-original="#000000" class=""/></g></svg>
